/* XPM */
static char * closefcs_xpm[] = {
"14 14 42 1",
" 	c None",
".	c #323232",
"+	c #313232",
"@	c #323132",
"#	c #323131",
"$	c #313231",
"%	c #2F2F2F",
"&	c #2D2D2D",
"*	c #2A2A2A",
"=	c #808080",
"-	c #282828",
";	c #282728",
">	c #272828",
",	c #272827",
"'	c #121212",
")	c #282827",
"!	c #252525",
"~	c #101010",
"{	c #222322",
"]	c #222223",
"^	c #232222",
"/	c #222222",
"(	c #0F0F0F",
"_	c #1B1B1B",
":	c #7F7F7B",
"<	c #0B0C0C",
"[	c #1C1D1C",
"}	c #1D1D1D",
"|	c #1F1F1E",
"1	c #1E1F1E",
"2	c #1F1F1F",
"3	c #0D0D0D",
"4	c #212121",
"5	c #0F0E0F",
"6	c #232323",
"7	c #0F1010",
"8	c #242424",
"9	c #252526",
"0	c #262626",
"a	c #272727",
"b	c #282929",
"c	c #292929",
"....+.@++@+#@$",
"%%%%%%%%%%%%%%",
"&&&&&&&&&&&&&&",
"***==****==***",
"-;-===>,===';)",
"!!!!======~~!!",
"{]^{/====((///",
"_____::::<[}}}",
"[}}}======|122",
"222===33===444",
"444==5(//==(66",
"6666~78888~~!!",
"!!!!!90000aaaa",
"aaaa)-----bccc"};
