/* XPM */
static char * closepr_xpm[] = {
"14 14 41 1",
" 	c None",
".	c #313131",
"+	c #2F2F2F",
"@	c #2F2E2F",
"#	c #2E2F2F",
"$	c #2E2E2E",
"%	c #2F2E2E",
"&	c #2E2F2E",
"*	c #2C2C2C",
"=	c #292929",
"-	c #272727",
";	c #272627",
">	c #808080",
",	c #262727",
"'	c #262726",
")	c #272726",
"!	c #262626",
"~	c #242424",
"{	c #212221",
"]	c #212122",
"^	c #222121",
"/	c #212121",
"(	c #1A1A1A",
"_	c #1B1C1C",
":	c #1B1C1B",
"<	c #1C1C1C",
"[	c #1D1D1C",
"}	c #7F7F7B",
"|	c #1D1D1D",
"1	c #1E1E1D",
"2	c #1D1E1D",
"3	c #1E1E1E",
"4	c #201F20",
"5	c #202020",
"6	c #222222",
"7	c #222323",
"8	c #232323",
"9	c #242425",
"0	c #252525",
"a	c #272828",
"b	c #282828",
"..............",
"+@##+#$%+$&+@%",
"**************",
"==============",
"-;->>;,')>>!;)",
"~~~>>>~~>>>~~~",
"{]^{>>>>>>////",
"(((((>>>>_:<<<",
":<<<[}}}}|1233",
"3333>>>>>>4555",
"555>>>//>>>666",
"666>>7888>>~~~",
"~~~~~90000!!!!",
"!!!!)-----abbb"};
