/* XPM */
static char * closeufcs_xpm[] = {
"14 14 71 1",
" 	c None",
".	c #2B2B2B",
"+	c #2A2B2B",
"@	c #2B2A2B",
"#	c #2B2A2A",
"$	c #2A2B2A",
"%	c #282828",
"&	c #262525",
"*	c #252526",
"=	c #252525",
"-	c #252625",
";	c #232323",
">	c #484848",
",	c #232223",
"'	c #202020",
")	c #464646",
"!	c #3B3B3B",
"~	c #0D0D0D",
"{	c #1E1D1E",
"]	c #1E1E1E",
"^	c #1E1D1D",
"/	c #3A3A3A",
"(	c #454545",
"_	c #0B0B0B",
":	c #0B0C0C",
"<	c #1D1E1D",
"[	c #1B1B1B",
"}	c #393939",
"|	c #0A0A0A",
"1	c #141414",
"2	c #3F3F3D",
"3	c #373736",
"4	c #070707",
"5	c #151515",
"6	c #161615",
"7	c #151616",
"8	c #161616",
"9	c #404040",
"0	c #383838",
"a	c #171717",
"b	c #181717",
"c	c #171817",
"d	c #181718",
"e	c #414141",
"f	c #424141",
"g	c #090909",
"h	c #393839",
"i	c #191919",
"j	c #19191A",
"k	c #1A1A19",
"l	c #434343",
"m	c #0A090A",
"n	c #1B1B1A",
"o	c #1C1B1C",
"p	c #1B1C1B",
"q	c #1C1C1B",
"r	c #1C1C1C",
"s	c #1C1D1D",
"t	c #1D1D1D",
"u	c #1E1E1D",
"v	c #1F1E1F",
"w	c #1F1F1F",
"x	c #1F1F20",
"y	c #201F20",
"z	c #201F1F",
"A	c #20201F",
"B	c #212021",
"C	c #212120",
"D	c #212121",
"E	c #212122",
"F	c #222221",
"....+.@++@+#@$",
"%%%%%%%%%%%%%%",
"&*=--=-======&",
";;;>>;;;,>>;;;",
"''')!!''))!~''",
"{]{^///((/_:<{",
"[[[[[}}}}||[[[",
"11111233345567",
"5588990000aaab",
"acdef0gg00hijk",
"ijjl}m|n[}}|op",
"[[qr__rstt__^u",
"tut]]]]vvwwwxy",
"wzA''''BCDDDEF"};
