/* XPM */
static char * maxfcs_xpm[] = {
"14 14 45 1",
" 	c None",
".	c #313131",
"+	c #2F2F2F",
"@	c #2F2E2F",
"#	c #2E2F2F",
"$	c #2E2E2E",
"%	c #2F2E2E",
"&	c #2E2F2E",
"*	c #2C2C2C",
"=	c #292929",
"-	c #808080",
";	c #272727",
">	c #272627",
",	c #111111",
"'	c #272726",
")	c #242424",
"!	c #0F0F0F",
"~	c #212221",
"{	c #212122",
"]	c #222121",
"^	c #0E0E0E",
"/	c #212121",
"(	c #1A1A1A",
"_	c #0A0A0A",
":	c #1A1B1B",
"<	c #1B1B1B",
"[	c #1B1C1C",
"}	c #0B0B0B",
"|	c #1C1C1C",
"1	c #1B1C1B",
"2	c #1C1D1C",
"3	c #1D1D1D",
"4	c #0B0C0B",
"5	c #1E1E1E",
"6	c #0C0C0C",
"7	c #1F1F1F",
"8	c #0D0D0D",
"9	c #202020",
"0	c #222222",
"a	c #0E0F0F",
"b	c #242425",
"c	c #252525",
"d	c #262626",
"e	c #272828",
"f	c #282828",
"..............",
"+@##+#$%+$&+@%",
"**************",
"===--------===",
";>;--------,>'",
")))--------!))",
"~{]-^^^^^^-^//",
"(((-_:<<<[-}||",
"1||-}23333-455",
"555-677777-899",
"999--------^00",
"0000!a!!!!!!))",
")))))bccccdddd",
"dddd';;;;;efff"};
