/* XPM */
static char * maxpr_xpm[] = {
"14 14 41 1",
" 	c None",
".	c #313131",
"+	c #2F2F2F",
"@	c #2F2E2F",
"#	c #2E2F2F",
"$	c #2E2E2E",
"%	c #2F2E2E",
"&	c #2E2F2E",
"*	c #2C2C2C",
"=	c #292929",
"-	c #272727",
";	c #272627",
">	c #808080",
",	c #262626",
"'	c #272726",
")	c #242424",
"!	c #212221",
"~	c #212122",
"{	c #222121",
"]	c #212121",
"^	c #1A1A1A",
"/	c #1A1B1B",
"(	c #1B1B1B",
"_	c #1B1C1C",
":	c #1C1C1C",
"<	c #1B1C1B",
"[	c #1D1D1C",
"}	c #1C1D1C",
"|	c #1D1D1D",
"1	c #1D1E1D",
"2	c #1E1E1E",
"3	c #1F1E1E",
"4	c #1F1F1F",
"5	c #202020",
"6	c #212020",
"7	c #212021",
"8	c #222222",
"9	c #242425",
"0	c #252525",
"a	c #272828",
"b	c #282828",
"..............",
"+@##+#$%+$&+@%",
"**************",
"==============",
"-;->>>>>>>>,;'",
")))>>>>>>>>)))",
"!~{>>>>>>>>]]]",
"^^^>^/(((_>:::",
"<::>[}||||>122",
"222>344444>555",
"555>67]]]]>888",
"888>>>>>>>>)))",
")))))90000,,,,",
",,,,'-----abbb"};
