/* XPM */
static char * maxufcs_xpm[] = {
"14 14 72 1",
" 	c None",
".	c #2B2B2B",
"+	c #2A2B2B",
"@	c #2B2A2B",
"#	c #2B2A2A",
"$	c #2A2B2A",
"%	c #282828",
"&	c #262525",
"*	c #252526",
"=	c #252525",
"-	c #252625",
";	c #232323",
">	c #484848",
",	c #202020",
"'	c #464646",
")	c #3B3B3B",
"!	c #0D0D0D",
"~	c #1E1D1E",
"{	c #1E1E1E",
"]	c #454545",
"^	c #3A3A3A",
"/	c #0B0C0C",
"(	c #1D1E1D",
"_	c #1B1B1B",
":	c #434343",
"<	c #0A0A0A",
"[	c #393939",
"}	c #141414",
"|	c #3F3F3F",
"1	c #070707",
"2	c #141415",
"3	c #141515",
"4	c #151515",
"5	c #404040",
"6	c #161615",
"7	c #151616",
"8	c #161616",
"9	c #080807",
"0	c #171617",
"a	c #171717",
"b	c #414141",
"c	c #080808",
"d	c #181717",
"e	c #171817",
"f	c #181718",
"g	c #090909",
"h	c #181818",
"i	c #191918",
"j	c #191818",
"k	c #191919",
"l	c #424242",
"m	c #19191A",
"n	c #1A1A19",
"o	c #1C1B1C",
"p	c #1B1C1B",
"q	c #1C1C1B",
"r	c #1C1C1C",
"s	c #0B0B0B",
"t	c #1E1D1D",
"u	c #1E1E1D",
"v	c #1D1D1D",
"w	c #1F1E1F",
"x	c #1F1F1F",
"y	c #1F1F20",
"z	c #201F20",
"A	c #201F1F",
"B	c #20201F",
"C	c #212021",
"D	c #212120",
"E	c #212121",
"F	c #212122",
"G	c #222221",
"....+.@++@+#@$",
"%%%%%%%%%%%%%%",
"&*=--=-======&",
";;;>>>>>>>>;;;",
",,,')))))))!,,",
"~{~]^^^^^^^/(~",
"___:<<<<<<[<__",
"}}}|1}23445167",
"44859880aabcad",
"aefbghhijklgmn",
"kmm:[::::::<op",
"__qrsssssssstu",
"vuv{{{{wwxxxyz",
"xAB,,,,CDEEEFG"};
