/* XPM */
static char * menuiconfcs_xpm[] = {
"14 14 51 1",
" 	c None",
".	c #313131",
"+	c #2F2F2F",
"@	c #2F2E2F",
"#	c #2E2F2F",
"$	c #2E2E2E",
"%	c #2F2E2E",
"&	c #2E2F2E",
"*	c #2C2C2C",
"=	c #292929",
"-	c #272727",
";	c #272627",
">	c #262727",
",	c #262726",
"'	c #272726",
")	c #262626",
"!	c #242424",
"~	c #212221",
"{	c #212122",
"]	c #222121",
"^	c #212121",
"/	c #7F7F7B",
"(	c #1A1A1A",
"_	c #1A1B1B",
":	c #0A0A0B",
"<	c #0A0B0C",
"[	c #1B1C1B",
"}	c #1C1C1C",
"|	c #1D1D1C",
"1	c #1D1D1D",
"2	c #1E1E1D",
"3	c #1D1E1D",
"4	c #1E1E1E",
"5	c #1F1E1E",
"6	c #1F1F1F",
"7	c #0C0C0E",
"8	c #0D0D0E",
"9	c #0D0C0E",
"0	c #201F20",
"a	c #202020",
"b	c #212020",
"c	c #212021",
"d	c #212222",
"e	c #222222",
"f	c #232323",
"g	c #222323",
"h	c #232324",
"i	c #242425",
"j	c #252525",
"k	c #272828",
"l	c #282828",
"..............",
"+@##+#$%+$&+@%",
"**************",
"==============",
"-;-;>;>,'-,);'",
"!!!!!!!!!!!!!!",
"~{]~^////{^^^^",
"(((((_:::<[}}}",
"[}}}|////12344",
"44445678980aaa",
"aaaabc^^^^deee",
"eeeefgffffh!!!",
"!!!!!ijjjj))))",
"))))'-----klll"};
