/* XPM */
static char * minfcs_xpm[] = {
"14 14 43 1",
" 	c None",
".	c #313131",
"+	c #2F2F2F",
"@	c #2F2E2F",
"#	c #2E2F2F",
"$	c #2E2E2E",
"%	c #2F2E2E",
"&	c #2E2F2E",
"*	c #2C2C2C",
"=	c #292929",
"-	c #272727",
";	c #272627",
">	c #262727",
",	c #262726",
"'	c #272726",
")	c #262626",
"!	c #242424",
"~	c #212221",
"{	c #212122",
"]	c #222121",
"^	c #212121",
"/	c #1A1A1A",
"(	c #1A1B1B",
"_	c #1B1B1B",
":	c #1B1C1C",
"<	c #1B1C1B",
"[	c #1C1C1C",
"}	c #1D1D1C",
"|	c #1C1D1C",
"1	c #1D1D1D",
"2	c #1E1E1D",
"3	c #1D1E1D",
"4	c #1E1E1E",
"5	c #808080",
"6	c #202020",
"7	c #0E0E0E",
"8	c #222222",
"9	c #0F0F0F",
"0	c #0E0F0F",
"a	c #242425",
"b	c #252525",
"c	c #272828",
"d	c #282828",
"..............",
"+@##+#$%+$&+@%",
"**************",
"==============",
"-;-;>;>,'-,);'",
"!!!!!!!!!!!!!!",
"~{]~^^^~^{^^^^",
"/////(___:<[[[",
"<[[[}|11112344",
"44455555555666",
"66655555555788",
"888890999999!!",
"!!!!!abbbb))))",
"))))'-----cddd"};
