/* XPM */
static char * minufcs_xpm[] = {
"14 14 61 1",
" 	c None",
".	c #2B2B2B",
"+	c #2A2B2B",
"@	c #2B2A2B",
"#	c #2B2A2A",
"$	c #2A2B2A",
"%	c #282828",
"&	c #262525",
"*	c #252526",
"=	c #252525",
"-	c #252625",
";	c #232323",
">	c #232223",
",	c #222323",
"'	c #202020",
")	c #1E1D1E",
"!	c #1E1E1E",
"~	c #1E1D1D",
"{	c #1D1D1E",
"]	c #1D1E1D",
"^	c #1D1D1D",
"/	c #1D1E1E",
"(	c #1B1B1B",
"_	c #141414",
":	c #141415",
"<	c #141515",
"[	c #151515",
"}	c #161615",
"|	c #151616",
"1	c #161616",
"2	c #171617",
"3	c #171717",
"4	c #181717",
"5	c #171817",
"6	c #181718",
"7	c #414141",
"8	c #424141",
"9	c #424242",
"0	c #191919",
"a	c #19191A",
"b	c #1A1A19",
"c	c #434343",
"d	c #393939",
"e	c #0A0A0A",
"f	c #1C1B1C",
"g	c #1B1C1B",
"h	c #1C1C1B",
"i	c #1C1C1C",
"j	c #0B0B0B",
"k	c #1E1E1D",
"l	c #1F1E1F",
"m	c #1F1F1F",
"n	c #1F1F20",
"o	c #201F20",
"p	c #201F1F",
"q	c #20201F",
"r	c #212021",
"s	c #212120",
"t	c #212121",
"u	c #212122",
"v	c #222221",
"....+.@++@+#@$",
"%%%%%%%%%%%%%%",
"&*=--=-======&",
";;;;;;;;>,,;;;",
"''''''''''''''",
")!)~~{]!{~^/])",
"((((((((((((((",
"______:<[[[[}|",
"[[111112333334",
"356789999990ab",
"0aacdddddddefg",
"((hijjjjjjjj~k",
"^k^!!!!llmmmno",
"mpq''''rstttuv"};
