/* XPM */
static char * shadefcs_xpm[] = {
"14 14 55 1",
" 	c None",
".	c #303030",
"+	c #2D2D2D",
"@	c #2B2A2A",
"#	c #2A2A2B",
"$	c #2A2A2A",
"%	c #2A2B2A",
"&	c #282828",
"*	c #282728",
"=	c #272828",
"-	c #252525",
";	c #232223",
">	c #232323",
",	c #232222",
"'	c #222223",
")	c #222322",
"!	c #222222",
"~	c #222323",
"{	c #202020",
"]	c #191919",
"^	c #7E7E7B",
"/	c #1A1A1A",
"(	c #1B1B1A",
"_	c #1A1B1B",
":	c #1B1B1B",
"<	c #0A0A0B",
"[	c #1C1C1C",
"}	c #1D1C1C",
"|	c #1C1D1C",
"1	c #1D1C1D",
"2	c #1D1D1D",
"3	c #1E1E1D",
"4	c #1E1D1D",
"5	c #1E1E1E",
"6	c #1E1E1F",
"7	c #1F1F1E",
"8	c #1F1F1F",
"9	c #20201F",
"0	c #212021",
"a	c #202120",
"b	c #212120",
"c	c #212121",
"d	c #212222",
"e	c #232322",
"f	c #242324",
"g	c #242424",
"h	c #242425",
"i	c #252425",
"j	c #252424",
"k	c #252524",
"l	c #262526",
"m	c #262625",
"n	c #262626",
"o	c #262627",
"p	c #272726",
"..............",
"++++++++++++++",
"@#$%%$%$$$$$$@",
"&&&&&&&&*==&&&",
"--------------",
";>;,,')>',!~);",
"{{{{{{{{{{{{{{",
"]]]]]^^^^///(_",
"//::::<<<<[[[}",
"[|122223455567",
"56688889{{{{0a",
"{{bccccd!!!!,e",
"!e!>>>>ffggghi",
"gjk----lmnnnop"};
