/* XPM */
static char * shadeufcs_xpm[] = {
"14 14 49 1",
" 	c None",
".	c #292929",
"+	c #272727",
"@	c #272627",
"#	c #262727",
"$	c #262626",
"%	c #272626",
"&	c #262726",
"*	c #242424",
"=	c #212121",
"-	c #1F1F1F",
";	c #1F1E1F",
">	c #1E1F1F",
",	c #1E1F1E",
"'	c #1F1F1E",
")	c #1E1E1E",
"!	c #1C1C1C",
"~	c #191A19",
"{	c #19191A",
"]	c #1A1919",
"^	c #191919",
"/	c #121212",
"(	c #3E3E3C",
"_	c #3E3E3D",
":	c #131414",
"<	c #131413",
"[	c #141414",
"}	c #151514",
"|	c #141514",
"1	c #060607",
"2	c #060608",
"3	c #161615",
"4	c #151615",
"5	c #161616",
"6	c #171616",
"7	c #171717",
"8	c #181718",
"9	c #181818",
"0	c #191818",
"a	c #191819",
"b	c #191A1A",
"c	c #1A1A1A",
"d	c #1B1B1B",
"e	c #1A1B1B",
"f	c #1B1B1C",
"g	c #1C1C1D",
"h	c #1D1D1D",
"i	c #1F2020",
"j	c #202020",
"..............",
"+@##+#$%+$&+@%",
"**************",
"==============",
"-;-;>;>,'-,);'",
"!!!!!!!!!!!!!!",
"~{]~^^^~^{^^^^",
"/////(___:<[[[",
"<[[[}|12223455",
"55556777778999",
"99990a^^^^bccc",
"ccccdeddddf!!!",
"!!!!!ghhhh))))",
"))))'-----ijjj"};
