/* XPM */
static char * stickfcs_xpm[] = {
"14 14 50 1",
" 	c None",
".	c #313131",
"+	c #2F2F2F",
"@	c #2F2E2F",
"#	c #2E2F2F",
"$	c #2E2E2E",
"%	c #2F2E2E",
"&	c #2E2F2E",
"*	c #2C2C2C",
"=	c #292929",
"-	c #272727",
";	c #272627",
">	c #262727",
",	c #262726",
"'	c #272726",
")	c #262626",
"!	c #242424",
"~	c #808080",
"{	c #212221",
"]	c #212122",
"^	c #222121",
"/	c #212121",
"(	c #0E0E0E",
"_	c #1A1A1A",
":	c #0A0A0A",
"<	c #1B1B1B",
"[	c #0A0B0B",
"}	c #1B1C1B",
"|	c #1C1C1C",
"1	c #1D1D1C",
"2	c #0B0B0B",
"3	c #1E1E1D",
"4	c #1D1E1D",
"5	c #1E1E1E",
"6	c #1F1E1E",
"7	c #1F1F1F",
"8	c #0C0C0C",
"9	c #201F20",
"0	c #202020",
"a	c #212020",
"b	c #212021",
"c	c #212222",
"d	c #222222",
"e	c #232323",
"f	c #222323",
"g	c #232324",
"h	c #242425",
"i	c #252525",
"j	c #272828",
"k	c #282828",
"..............",
"+@##+#$%+$&+@%",
"**************",
"==============",
"-;-;>;>,'-,);'",
"!!!!!~~~~!!!!!",
"{]^{/~((~(////",
"_____~:<~[}|||",
"}|||1~~~~23455",
"55556788889000",
"0000ab////cddd",
"ddddefeeeeg!!!",
"!!!!!hiiii))))",
"))))'-----jkkk"};
