/* XPM */
static char * stickufcs_xpm[] = {
"14 14 67 1",
" 	c None",
".	c #2B2B2B",
"+	c #2A2B2B",
"@	c #2B2A2B",
"#	c #2B2A2A",
"$	c #2A2B2A",
"%	c #282828",
"&	c #262525",
"*	c #252526",
"=	c #252525",
"-	c #252625",
";	c #232323",
">	c #232223",
",	c #222323",
"'	c #202020",
")	c #1E1D1E",
"!	c #1E1E1E",
"~	c #1E1D1D",
"{	c #454545",
"]	c #1D1D1D",
"^	c #1D1E1E",
"/	c #1D1E1D",
"(	c #1B1B1B",
"_	c #434343",
":	c #0A0A0A",
"<	c #393939",
"[	c #141414",
"}	c #3F3F3F",
"|	c #070707",
"1	c #141515",
"2	c #404040",
"3	c #151515",
"4	c #161615",
"5	c #151616",
"6	c #161616",
"7	c #383838",
"8	c #414041",
"9	c #414141",
"0	c #080808",
"a	c #171717",
"b	c #181717",
"c	c #171817",
"d	c #181718",
"e	c #181818",
"f	c #090909",
"g	c #191919",
"h	c #19191A",
"i	c #1A1A19",
"j	c #1A1A1A",
"k	c #1B1B1A",
"l	c #1C1B1C",
"m	c #1B1C1B",
"n	c #1C1C1B",
"o	c #1C1C1C",
"p	c #1C1D1D",
"q	c #1E1E1D",
"r	c #1F1E1F",
"s	c #1F1F1F",
"t	c #1F1F20",
"u	c #201F20",
"v	c #201F1F",
"w	c #20201F",
"x	c #212021",
"y	c #212120",
"z	c #212121",
"A	c #212122",
"B	c #222221",
"....+.@++@+#@$",
"%%%%%%%%%%%%%%",
"&*=--=-======&",
";;;;;;;;>,,;;;",
"''''''''''''''",
")!)~~{{{{~]^/)",
"(((((_::<:((((",
"[[[[[}|12|3345",
"3366627890aaab",
"acdeeeffffgghi",
"ghhjjjjk((((lm",
"((noooop]]]]~q",
"]q]!!!!rrssstu",
"svw''''xyzzzAB"};
