/* XPM */
static char * stickpr_xpm[] = {
"14 14 47 1",
" 	c None",
".	c #313131",
"+	c #2F2F2F",
"@	c #2F2E2F",
"#	c #2E2F2F",
"$	c #2E2E2E",
"%	c #2F2E2E",
"&	c #2E2F2E",
"*	c #2C2C2C",
"=	c #292929",
"-	c #272727",
";	c #272627",
">	c #262727",
",	c #262726",
"'	c #272726",
")	c #262626",
"!	c #242424",
"~	c #212221",
"{	c #212122",
"]	c #222121",
"^	c #212121",
"/	c #808080",
"(	c #1A1A1A",
"_	c #1B1B1B",
":	c #1B1C1C",
"<	c #1B1C1B",
"[	c #1C1C1C",
"}	c #1D1D1C",
"|	c #1D1D1D",
"1	c #1E1E1D",
"2	c #1D1E1D",
"3	c #1E1E1E",
"4	c #1F1E1E",
"5	c #1F1F1F",
"6	c #201F20",
"7	c #202020",
"8	c #212020",
"9	c #212021",
"0	c #212222",
"a	c #222222",
"b	c #232323",
"c	c #222323",
"d	c #232324",
"e	c #242425",
"f	c #252525",
"g	c #272828",
"h	c #282828",
"..............",
"+@##+#$%+$&+@%",
"**************",
"==============",
"-;-;>;>,'-,);'",
"!!!!!!!!!!!!!!",
"~{]~^////{^^^^",
"(((((/__/:<[[[",
"<[[[}/||/|1233",
"33334////56777",
"777789^^^^0aaa",
"aaaabcbbbbd!!!",
"!!!!!effff))))",
"))))'-----ghhh"};
