/* XPM */
static char * stuckfcs_xpm[] = {
"14 14 47 1",
" 	c None",
".	c #323232",
"+	c #313232",
"@	c #323132",
"#	c #323131",
"$	c #313231",
"%	c #2F2F2F",
"&	c #2D2D2D",
"*	c #2A2A2A",
"=	c #282828",
"-	c #282728",
";	c #272828",
">	c #272827",
",	c #282827",
"'	c #272727",
")	c #252525",
"!	c #808080",
"~	c #222322",
"{	c #222223",
"]	c #232222",
"^	c #222222",
"/	c #0F0F0F",
"(	c #1B1B1B",
"_	c #0B0C0C",
":	c #1C1D1C",
"<	c #1D1D1D",
"[	c #1E1E1D",
"}	c #0C0C0C",
"|	c #1F1F1E",
"1	c #1E1F1E",
"2	c #1F1F1F",
"3	c #201F1F",
"4	c #202020",
"5	c #0D0D0D",
"6	c #212021",
"7	c #212121",
"8	c #222121",
"9	c #222122",
"0	c #222323",
"a	c #232323",
"b	c #242424",
"c	c #232424",
"d	c #242425",
"e	c #252526",
"f	c #262626",
"g	c #282929",
"h	c #292929",
"....+.@++@+#@$",
"%%%%%%%%%%%%%%",
"&&&&&&&&&&&&&&",
"**************",
"=-=-;-;>,=>'-,",
")))))!!!!)))))",
"~{]~^!!!!/^^^^",
"(((((!!!!_:<<<",
":<<<[!!!!}|122",
"22223455556777",
"777789^^^^0aaa",
"aaaabcbbbbd)))",
")))))effff''''",
"'''',=====ghhh"};
