/* XPM */
static char * stuckufcs_xpm[] = {
"14 14 68 1",
" 	c None",
".	c #2B2B2B",
"+	c #2A2B2B",
"@	c #2B2A2B",
"#	c #2B2A2A",
"$	c #2A2B2A",
"%	c #282828",
"&	c #262525",
"*	c #252526",
"=	c #252525",
"-	c #252625",
";	c #232323",
">	c #232223",
",	c #222323",
"'	c #202020",
")	c #1E1D1E",
"!	c #1E1E1E",
"~	c #1E1D1D",
"{	c #454545",
"]	c #1D1D1D",
"^	c #1D1E1E",
"/	c #1D1E1D",
"(	c #1B1B1B",
"_	c #434343",
":	c #393939",
"<	c #0A0A0A",
"[	c #141414",
"}	c #3F3F3F",
"|	c #373737",
"1	c #3F4040",
"2	c #404040",
"3	c #070707",
"4	c #151515",
"5	c #161615",
"6	c #151616",
"7	c #161616",
"8	c #383838",
"9	c #414041",
"0	c #414141",
"a	c #080808",
"b	c #171717",
"c	c #181717",
"d	c #171817",
"e	c #181718",
"f	c #181818",
"g	c #090909",
"h	c #191919",
"i	c #19191A",
"j	c #1A1A19",
"k	c #1A1A1A",
"l	c #1B1B1A",
"m	c #1C1B1C",
"n	c #1B1C1B",
"o	c #1C1C1B",
"p	c #1C1C1C",
"q	c #1C1D1D",
"r	c #1E1E1D",
"s	c #1F1E1F",
"t	c #1F1F1F",
"u	c #1F1F20",
"v	c #201F20",
"w	c #201F1F",
"x	c #20201F",
"y	c #212021",
"z	c #212120",
"A	c #212121",
"B	c #212122",
"C	c #222221",
"....+.@++@+#@$",
"%%%%%%%%%%%%%%",
"&*=--=-======&",
";;;;;;;;>,,;;;",
"''''''''''''''",
")!)~~{{{{~]^/)",
"(((((_:::<((((",
"[[[[[}|1234456",
"447772890abbbc",
"bdefffgggghhij",
"hiikkkkl((((mn",
"((oppppq]]]]~r",
"]r]!!!!sstttuv",
"twx''''yzAAABC"};
