/* XPM */
static char * unshadefcs_xpm[] = {
"14 14 49 1",
" 	c None",
".	c #313131",
"+	c #2F2F2F",
"@	c #2F2E2F",
"#	c #2E2F2F",
"$	c #2E2E2E",
"%	c #2F2E2E",
"&	c #2E2F2E",
"*	c #2C2C2C",
"=	c #292929",
"-	c #272727",
";	c #272627",
">	c #262727",
",	c #262726",
"'	c #272726",
")	c #262626",
"!	c #242424",
"~	c #212221",
"{	c #212122",
"]	c #222121",
"^	c #212121",
"/	c #1A1A1A",
"(	c #7F7F7B",
"_	c #1B1C1C",
":	c #1B1C1B",
"<	c #1C1C1C",
"[	c #1D1D1C",
"}	c #1C1D1C",
"|	c #0B0B0C",
"1	c #0C0B0C",
"2	c #0C0C0C",
"3	c #1E1E1D",
"4	c #1D1E1D",
"5	c #1E1E1E",
"6	c #1F1E1E",
"7	c #1F1F1F",
"8	c #201F20",
"9	c #202020",
"0	c #212020",
"a	c #212021",
"b	c #212222",
"c	c #222222",
"d	c #232323",
"e	c #222323",
"f	c #232324",
"g	c #242425",
"h	c #252525",
"i	c #272828",
"j	c #282828",
"..............",
"+@##+#$%+$&+@%",
"**************",
"==============",
"-;-;>;>,'-,);'",
"!!!!!!!!!!!!!!",
"~{]~^^^~^{^^^^",
"/////((((_:<<<",
":<<<[}|1223455",
"55556777778999",
"99990a^^^^bccc",
"ccccdeddddf!!!",
"!!!!!ghhhh))))",
"))))'-----ijjj"};
