/* XPM */
static char * unshadeufcs_xpm[] = {
"14 14 60 1",
" 	c None",
".	c #2B2B2B",
"+	c #2A2B2B",
"@	c #2B2A2B",
"#	c #2B2A2A",
"$	c #2A2B2A",
"%	c #282828",
"&	c #262525",
"*	c #252526",
"=	c #252525",
"-	c #252625",
";	c #232323",
">	c #232223",
",	c #222323",
"'	c #202020",
")	c #1E1D1E",
"!	c #1E1E1E",
"~	c #1E1D1D",
"{	c #1D1D1E",
"]	c #1D1E1D",
"^	c #1D1D1D",
"/	c #1D1E1E",
"(	c #1B1B1B",
"_	c #141414",
":	c #3F3F3D",
"<	c #3F3F3E",
"[	c #151515",
"}	c #161615",
"|	c #151616",
"1	c #161616",
"2	c #080809",
"3	c #171717",
"4	c #181717",
"5	c #171817",
"6	c #181718",
"7	c #181818",
"8	c #191918",
"9	c #191818",
"0	c #191919",
"a	c #19191A",
"b	c #1A1A19",
"c	c #1A1A1A",
"d	c #1B1B1A",
"e	c #1C1B1C",
"f	c #1B1C1B",
"g	c #1C1C1B",
"h	c #1C1C1C",
"i	c #1C1D1D",
"j	c #1E1E1D",
"k	c #1F1E1F",
"l	c #1F1F1F",
"m	c #1F1F20",
"n	c #201F20",
"o	c #201F1F",
"p	c #20201F",
"q	c #212021",
"r	c #212120",
"s	c #212121",
"t	c #212122",
"u	c #222221",
"....+.@++@+#@$",
"%%%%%%%%%%%%%%",
"&*=--=-======&",
";;;;;;;;>,,;;;",
"''''''''''''''",
")!)~~{]!{~^/])",
"((((((((((((((",
"_____:<<<[[[}|",
"[[111122223334",
"356777789000ab",
"0aaccccd((((ef",
"((ghhhhi^^^^~j",
"^j^!!!!kklllmn",
"lop''''qrssstu"};
